# xmcd
#
# Track frame offsets:
# 150
# 14725
# 29715
# 62914
# 89495
# 104795
# 134960
# 149767
# 163530
# 180777
# 207847
# 238265
#
# Disc length: 3373 seconds
#
#
# Revision: 0
# Processed by: cddbd v1.4PL0 Copyright (c) Steve Scherf et al.
# Submitted via: FreeRIP 2.51 
#
DISCID=c00d2b0c
DTITLE=Lisa Otey - Blue Anglel
DYEAR=1996
DGENRE=Blues
TTITLE0=Yonder Come The Blues
TTITLE1=Forty Cups of Coffee
TTITLE2=Motherless Child - Blues Get Off My Shoulder
TTITLE3=Trouble In Mind
TTITLE4=Is You Is Or Is You Ain't My Baby
TTITLE5=Stormy Blues
TTITLE6=Your Red Wagon
TTITLE7=You Do Me Any Old Way
TTITLE8=Honeysuckle Rose
TTITLE9=St. Louis Blues
TTITLE10=Round Dance Blues - On The Pulse of Morning
TTITLE11=Bye Bye Blues
EXTD=
EXTT0=
EXTT1=
EXTT2=
EXTT3=
EXTT4=
EXTT5=
EXTT6=
EXTT7=
EXTT8=
EXTT9=
EXTT10=
EXTT11=
PLAYORDER=
